# xmcd
#
# Track frame offsets: 
#        150
#        16050
#        33359
#        58857
#        73727
#        92526
#        123951
#        150521
#        191319
#        209109
#        222426
#        239051
#
# Disc length: 4145 seconds
#
# Revision: 0
# Processed by: cddbd v1.5.2PL0 Copyright (c) Steve Scherf et al.
# Submitted via: ExactAudioCopy v0.99pb5
#
DISCID=a9102f0c
DTITLE=Stephen Dale Petit - The BBC Sessions
DYEAR=2011
DGENRE=Blues
TTITLE0=Steppin' Out
TTITLE1=Sacramento
TTITLE2=As The Years Go Passing By
TTITLE3=7 Cent Cotton
TTITLE4=Goin' Away Baby
TTITLE5=Love In Vain
TTITLE6=Slide
TTITLE7=A Better Answer
TTITLE8=My Friend Bob
TTITLE9=It's All Good
TTITLE10=A Better Answer
TTITLE11=Interview
EXTD=
EXTT0=
EXTT1=
EXTT2=
EXTT3=
EXTT4=
EXTT5=
EXTT6=
EXTT7=
EXTT8=
EXTT9=
EXTT10=
EXTT11=
PLAYORDER=
